<svg width="75" height="19" viewBox="0 0 75 19" fill="none" xmlns="http://www.w3.org/2000/svg">
<path d="M13.6837 1.43003C12.8056 0.429123 11.2182 1.14441e-05 9.18753 1.14441e-05H3.29382C3.0928 -9.53674e-05 2.89834 0.0715466 2.74543 0.202045C2.59253 0.332544 2.49122 0.51333 2.45973 0.711872L0.00677755 16.2768C-0.00459645 16.349 -0.000181799 16.4228 0.0197176 16.4932C0.039617 16.5635 0.0745281 16.6287 0.122045 16.6842C0.169563 16.7398 0.228557 16.7844 0.294963 16.8149C0.36137 16.8455 0.43361 16.8613 0.506707 16.8612H4.14522L5.05905 11.0651L5.03072 11.2466C5.0616 11.0484 5.16224 10.8678 5.31449 10.7373C5.46674 10.6068 5.6606 10.535 5.86114 10.5347H7.59017C10.9869 10.5347 13.6465 9.15506 14.4234 5.16402C14.4465 5.04599 14.4664 4.93111 14.4837 4.81884C14.7146 3.34371 14.4822 2.33966 13.6843 1.43055" fill="#003087"/>
<path d="M58.2272 8.83666C58.0048 10.2971 56.8895 10.2971 55.8109 10.2971H55.1972L55.6279 7.57032C55.6541 7.4056 55.7957 7.28442 55.9625 7.28442H56.2443C56.9787 7.28442 57.6722 7.28442 58.0299 7.70251C58.2434 7.95274 58.308 8.32414 58.2272 8.83666ZM57.7577 5.02608H53.689C53.5542 5.02615 53.4239 5.07424 53.3214 5.16173C53.219 5.24922 53.151 5.37038 53.1298 5.50345L51.4857 15.9359C51.4782 15.9842 51.4812 16.0337 51.4945 16.0808C51.5078 16.1279 51.5312 16.1715 51.563 16.2088C51.5948 16.246 51.6342 16.2759 51.6787 16.2964C51.7231 16.317 51.7715 16.3276 51.8204 16.3277H53.9083C54.1029 16.3277 54.2687 16.1861 54.2991 15.9941L54.766 13.0354C54.809 12.7611 55.0461 12.5581 55.3241 12.5581H56.6115C59.2921 12.5581 60.8386 11.2618 61.2425 8.69083C61.4245 7.56717 61.2498 6.68377 60.7237 6.06528C60.1451 5.38542 59.1195 5.02556 57.7582 5.02556" fill="#009CDE"/>
<path d="M29.2071 8.8367C28.9847 10.2971 27.8694 10.2971 26.7904 10.2971H26.1766L26.6073 7.57036C26.6335 7.40564 26.7752 7.28446 26.942 7.28446H27.2237C27.9581 7.28446 28.6516 7.28446 29.0094 7.70255C29.2234 7.95278 29.2879 8.32419 29.2071 8.8367ZM28.7376 5.02612H24.6689C24.3909 5.02612 24.1538 5.22861 24.1103 5.5035L22.4657 15.9359C22.458 15.9843 22.461 16.0337 22.4743 16.0809C22.4876 16.128 22.5109 16.1717 22.5427 16.209C22.5745 16.2462 22.614 16.2761 22.6585 16.2966C22.703 16.3171 22.7514 16.3278 22.8004 16.3278H24.7434C25.0215 16.3278 25.2581 16.1253 25.3016 15.8504L25.7459 13.036C25.7889 12.7611 26.026 12.5586 26.3041 12.5586H27.5914C30.272 12.5586 31.8185 11.2619 32.2224 8.69087C32.4045 7.56721 32.2298 6.68381 31.7036 6.06532C31.125 5.38546 30.0994 5.0256 28.7381 5.0256M38.1838 12.5822C37.995 13.6954 37.1121 14.4429 35.9848 14.4429C35.4198 14.4429 34.9671 14.2609 34.6764 13.9168C34.3879 13.5758 34.2799 13.0895 34.3711 12.5487C34.5463 11.4449 35.4444 10.6738 36.5545 10.6738C37.1079 10.6738 37.5564 10.8574 37.8533 11.2047C38.1518 11.5546 38.2693 12.0435 38.1838 12.5822ZM40.8991 8.78949H38.9508C38.8698 8.7894 38.7914 8.81827 38.7298 8.87089C38.6683 8.92351 38.6275 8.99642 38.615 9.07644L38.53 9.62096L38.3937 9.42372C37.9719 8.81153 37.0313 8.60641 36.0923 8.60641C33.9399 8.60641 32.1013 10.2379 31.7435 12.5251C31.5573 13.6671 31.8217 14.7577 32.469 15.5189C33.0633 16.2181 33.9116 16.5093 34.9225 16.5093C36.6578 16.5093 37.6199 15.3951 37.6199 15.3951L37.5328 15.9364C37.5251 15.9849 37.5281 16.0344 37.5414 16.0815C37.5547 16.1287 37.5781 16.1724 37.61 16.2097C37.6419 16.247 37.6814 16.2769 37.726 16.2973C37.7705 16.3178 37.819 16.3284 37.868 16.3283H39.6222C39.9003 16.3283 40.1374 16.1263 40.1809 15.8509L41.2343 9.18188C41.2419 9.13343 41.2388 9.08391 41.2255 9.03673C41.2121 8.98955 41.1886 8.94584 41.1567 8.9086C41.1248 8.87136 41.0852 8.84147 41.0406 8.821C40.9961 8.80053 40.9476 8.78996 40.8985 8.79002" fill="#003087"/>
<path d="M67.2039 12.5822C67.015 13.6954 66.1322 14.4429 65.0048 14.4429C64.4399 14.4429 63.9871 14.2609 63.6965 13.9168C63.408 13.5758 63.2999 13.0895 63.3912 12.5487C63.5664 11.4449 64.464 10.6738 65.5745 10.6738C66.128 10.6738 66.5765 10.8574 66.8734 11.2047C67.1719 11.5546 67.2894 12.0435 67.2039 12.5822ZM69.9191 8.78949H67.9708C67.8898 8.7894 67.8115 8.81826 67.7499 8.87089C67.6883 8.92351 67.6476 8.99642 67.6351 9.07644L67.5501 9.62096L67.4137 9.42371C66.992 8.81152 66.0514 8.60641 65.1124 8.60641C62.9605 8.60641 61.1219 10.2379 60.7636 12.5251C60.5773 13.6671 60.8423 14.7577 61.4896 15.5189C62.0839 16.2181 62.9322 16.5093 63.9431 16.5093C65.6789 16.5093 66.641 15.3951 66.641 15.3951L66.5539 15.9364C66.5461 15.9848 66.5489 16.0343 66.5621 16.0815C66.5753 16.1286 66.5986 16.1724 66.6303 16.2097C66.6621 16.2469 66.7017 16.2769 66.7462 16.2974C66.7907 16.3178 66.8391 16.3284 66.8881 16.3283H68.6418C68.9198 16.3283 69.1569 16.1263 69.201 15.8509L70.2543 9.18188C70.2619 9.13343 70.2589 9.08391 70.2455 9.03673C70.2321 8.98955 70.2087 8.94584 70.1768 8.9086C70.1449 8.87135 70.1053 8.84147 70.0607 8.821C70.0161 8.80053 69.9676 8.78996 69.9186 8.79002" fill="#009CDE"/>
<path d="M51.276 8.78997H49.3172C49.1299 8.78997 48.9552 8.88282 48.8503 9.0381L46.1487 13.0165L45.0036 9.19338C44.9686 9.07677 44.897 8.97451 44.7994 8.90176C44.7018 8.829 44.5834 8.78962 44.4617 8.78945H42.537C42.483 8.78947 42.4298 8.80237 42.3818 8.82707C42.3338 8.85176 42.2924 8.88755 42.261 8.93146C42.2296 8.97536 42.2092 9.02612 42.2013 9.07952C42.1935 9.13291 42.1985 9.18741 42.2159 9.23849L44.372 15.5681L42.3439 18.4297C42.3081 18.4805 42.2869 18.5402 42.2826 18.6022C42.2784 18.6642 42.2912 18.7262 42.3198 18.7814C42.3484 18.8366 42.3916 18.8829 42.4447 18.9153C42.4978 18.9476 42.5587 18.9647 42.6209 18.9648H44.5776C44.7622 18.9648 44.9359 18.8741 45.0418 18.7219L51.554 9.32242C51.5894 9.27162 51.6102 9.21209 51.6141 9.15032C51.618 9.08854 51.6049 9.02687 51.5763 8.972C51.5476 8.91713 51.5045 8.87115 51.4516 8.83906C51.3986 8.80697 51.3379 8.79 51.276 8.78997Z" fill="#003087"/>
<path d="M72.2154 5.31305L70.5451 15.9364C70.5376 15.9848 70.5406 16.0343 70.5539 16.0814C70.5673 16.1286 70.5907 16.1723 70.6225 16.2095C70.6544 16.2467 70.6939 16.2766 70.7384 16.2971C70.7829 16.3176 70.8313 16.3283 70.8803 16.3283H72.5595C72.8376 16.3283 73.0747 16.1258 73.1182 15.8509L74.7649 5.41797C74.7726 5.36954 74.7696 5.32004 74.7563 5.27286C74.743 5.22568 74.7196 5.18195 74.6877 5.1447C74.6558 5.10744 74.6163 5.07755 74.5717 5.05707C74.5272 5.0366 74.4787 5.02603 74.4297 5.0261H72.5506C72.4697 5.0259 72.3915 5.05468 72.33 5.10722C72.2685 5.15976 72.2278 5.23312 72.2154 5.31305Z" fill="#009CDE"/>
<path d="M13.6837 1.43003C12.8056 0.429123 11.2182 1.14441e-05 9.18753 1.14441e-05H3.29382C3.0928 -9.53674e-05 2.89834 0.0715466 2.74543 0.202045C2.59253 0.332544 2.49122 0.51333 2.45973 0.711872L0.00677755 16.2768C-0.00459645 16.349 -0.000181799 16.4228 0.0197176 16.4932C0.039617 16.5635 0.0745281 16.6287 0.122045 16.6842C0.169563 16.7398 0.228557 16.7844 0.294963 16.8149C0.36137 16.8455 0.43361 16.8613 0.506707 16.8612H4.14522L5.05905 11.0651L5.03072 11.2466C5.0616 11.0484 5.16224 10.8678 5.31449 10.7373C5.46674 10.6068 5.6606 10.535 5.86114 10.5347H7.59017C10.9869 10.5347 13.6465 9.15506 14.4234 5.16402C14.4465 5.04599 14.4664 4.93111 14.4837 4.81884C14.7146 3.34371 14.4822 2.33966 13.6843 1.43055" fill="#003087"/>
<path d="M6.04054 4.83826C6.06811 4.66478 6.15661 4.5068 6.29015 4.39268C6.42369 4.27856 6.59353 4.21577 6.76919 4.21558H11.3897C11.9369 4.21558 12.4473 4.25125 12.9136 4.32574C13.1686 4.36676 13.4209 4.42317 13.669 4.49466C13.9509 4.57389 14.2236 4.68255 14.4827 4.81885C14.7145 3.3432 14.4816 2.33967 13.6837 1.43004C12.8051 0.429653 11.2182 0.000541687 9.18752 0.000541687H3.29329C3.09245 0.000684738 2.89824 0.0724411 2.74555 0.202917C2.59286 0.333393 2.4917 0.514042 2.46025 0.712404L0.00624246 16.2758C-0.00520852 16.348 -0.000869298 16.4218 0.0189614 16.4922C0.0387921 16.5625 0.0736426 16.6278 0.121111 16.6834C0.16858 16.7389 0.227539 16.7836 0.293924 16.8142C0.360309 16.8448 0.432542 16.8607 0.505647 16.8607H4.14469L5.05852 11.064L6.04054 4.83826Z" fill="#003087"/>
<path d="M14.4831 4.81834C14.4651 4.93376 14.445 5.04884 14.4228 5.16352C13.6459 9.15403 10.9862 10.5342 7.58955 10.5342H5.85999C5.65949 10.5344 5.46564 10.6062 5.31345 10.7367C5.16126 10.8673 5.06076 11.0479 5.0301 11.2461L4.1446 16.8602L3.8928 18.4528C3.88279 18.516 3.88661 18.5807 3.90399 18.6423C3.92138 18.7039 3.95192 18.761 3.9935 18.8097C4.03509 18.8584 4.08674 18.8974 4.14488 18.9242C4.20303 18.951 4.26629 18.9648 4.3303 18.9648H7.39755C7.76056 18.9648 8.06902 18.7004 8.1262 18.3421L8.1561 18.1858L8.73419 14.5221L8.77091 14.3196C8.7984 14.146 8.88694 13.9879 9.02061 13.8737C9.15428 13.7596 9.32431 13.6969 9.50008 13.6969H9.9591C12.9303 13.6969 15.2569 12.4904 15.9367 8.99876C16.22 7.54041 16.0731 6.3218 15.323 5.46621C15.0848 5.20094 14.8002 4.98139 14.4831 4.81834Z" fill="#009CDE"/>
<path d="M13.6695 4.49469C13.5509 4.45955 13.4287 4.42807 13.3028 4.40027C13.1769 4.37246 13.0468 4.34781 12.9136 4.32683C12.4467 4.25076 11.9368 4.21509 11.3891 4.21509H6.76911C6.59326 4.21487 6.42313 4.27759 6.28949 4.39189C6.15585 4.50619 6.06752 4.66453 6.04046 4.83829L5.05844 11.0651L5.03011 11.2461C5.06078 11.0479 5.16128 10.8673 5.31346 10.7367C5.46565 10.6062 5.6595 10.5344 5.86001 10.5342H7.58956C10.9862 10.5342 13.6459 9.15457 14.4228 5.16354C14.4459 5.0455 14.4653 4.93115 14.4831 4.81836C14.278 4.711 14.0642 4.62082 13.8442 4.54872C13.787 4.52984 13.7288 4.51253 13.6695 4.49469Z" fill="#012169"/>
</svg>
